# xmcd
#
# Track frame offsets: 
#        150
#        13304
#        26404
#        38885
#        51510
#        64823
#        79677
#        92113
#        106228
#        120216
#        134521
#        149119
#        163457
#        177573
#        189755
#        203337
#        217268
#        229953
#        242898
#        257453
#        272437
#        286599
#        300181
#        313310
#        324262
#
# Disc length: 4490 seconds
#
# Revision: 1
# Processed by: cddbd v1.5.2PL0 Copyright (c) Steve Scherf et al.
# Submitted via: ExactAudioCopyFreeDBPlugin 1.0
#
DISCID=68118819
DTITLE=Big Bill Broonzy - All The Sides [JSP Records]
DYEAR=2007
DGENRE=Blues
TTITLE0=Cell No. 13 Blues
TTITLE1=When I Get to Thinkin'
TTITLE2=Roll Dem Bones
TTITLE3=You Got the Best Go
TTITLE4=I Can Fix It
TTITLE5=Old Man Blues
TTITLE6=I Can't Write
TTITLE7=What Can I Do
TTITLE8=San Antonio Blues
TTITLE9=Saturday Evening Blues
TTITLE10=Martha Blues
TTITLE11=Texas Tornado Blues
TTITLE12=Big Bill's Boogie
TTITLE13=Just Rocking
TTITLE14=Shoo Blues
TTITLE15=I Feel Like Crying
TTITLE16=Stop Lying Woman
TTITLE17=Rambling Bill
TTITLE18=Summertime Blues
TTITLE19=Bad Luck Man
TTITLE20=(I'm a) Wonderin' Man
TTITLE21=I Love My Whiskey
TTITLE22=You've Been Mistreating Me
TTITLE23=I Stay Blue All the Time
TTITLE24=Water Coast Blues
EXTD=
EXTT0=
EXTT1=
EXTT2=
EXTT3=
EXTT4=
EXTT5=
EXTT6=
EXTT7=
EXTT8=
EXTT9=
EXTT10=
EXTT11=
EXTT12=
EXTT13=
EXTT14=
EXTT15=
EXTT16=
EXTT17=
EXTT18=
EXTT19=
EXTT20=
EXTT21=
EXTT22=
EXTT23=
EXTT24=
PLAYORDER=
